<svg id="Layer_1" data-name="Layer 1" xmlns="http://www.w3.org/2000/svg" viewBox="0 0 459.21 99.21"><defs><style>.cls-1{fill:#3c3c3b;}.cls-2,.cls-3{fill:#f9b044;}.cls-3{font-size:75.86px;font-family:Righteous-Regular, Righteous;}</style></defs><path class="cls-1" d="M1.38,23.26V19c.56,0,2.53.07,5.89.21,1.65.07,4,.11,7,.11q3.87,0,6.63-.21,4.57-.26,7.56-.26c3.86,0,6.74.39,8.66,1.17A10.19,10.19,0,0,1,42,24.87a18.35,18.35,0,0,1,2,9A23.8,23.8,0,0,1,41.3,45.3a19.75,19.75,0,0,1-8.52,8.16q.93,2.34,2.1,4.78c.79,1.63,1.25,2.62,1.39,3s.27.67.42,1L42.4,74.31q2.3,4.83,2.47,5.19,2.77,5.2,3.39,6.14a4.42,4.42,0,0,0,1.22,1.3,5.25,5.25,0,0,0,2.32.41v4.32q-5.67-.21-8.22-.21c-2,0-3.92.07-5.86.21a15.85,15.85,0,0,0-.88-3L29,70.36q-3.39-7.9-5.75-12.43a14.76,14.76,0,0,0-2.29-3.43l.41-1.72Q25.74,53,28,51.51a11.15,11.15,0,0,0,3.8-5.3,22.64,22.64,0,0,0,1.55-8.55,17.43,17.43,0,0,0-1.63-8,9.78,9.78,0,0,0-4-4.42,13.57,13.57,0,0,0-5.52-.77,14.9,14.9,0,0,0-3.51.41q-.11,1.88-.22,8.42Q18.23,48.05,18.22,53q0,7.8.11,16.53.15,10.71.22,12.17A17.12,17.12,0,0,0,19,85.48a2.12,2.12,0,0,0,.48.76,2.48,2.48,0,0,0,1.07.54,25.43,25.43,0,0,0,4.27.31v4.58q-6.3-.32-12.75-.31c-3.83,0-7.39.1-10.65.31V87.09a19.51,19.51,0,0,0,5-.57A1.1,1.1,0,0,0,7,86a4.33,4.33,0,0,0,.31-1.45c.17-1.35.3-3.4.37-6.14L8,63.23V44L7.83,33a45.53,45.53,0,0,0-.45-7.8,1.82,1.82,0,0,0-.55-.88Q5.95,23.67,1.38,23.26Z"/><path class="cls-1" d="M129,91.67V87.41q4.42-.21,5.25-.84a3.24,3.24,0,0,0,1.12-2.07q.4-2.23.41-13.47V39.89q0-12.74-.11-14.24h-5.27a60,60,0,0,0-7,.36c-.81.11-1.27.25-1.4.42a4.53,4.53,0,0,0-.44,1.82,71.84,71.84,0,0,0-.55,8.16H118q-.15-10.65-.19-12c-.07-1.52-.19-3.17-.36-4.94l.33-.52a36.63,36.63,0,0,0,3.68.37q3.18.15,12.2.15h14.9q9.28,0,12.42-.15c1.13-.07,2.27-.19,3.43-.37l.37.52c-.23,2.12-.36,4-.41,5.56,0,.28-.07,4.08-.15,11.39h-3.06c0-2.7-.21-5.29-.48-7.75a6.3,6.3,0,0,0-.48-2.23,2,2,0,0,0-1.17-.37,55.76,55.76,0,0,0-7.27-.41h-5.27q-.11,1.82-.11,14.24V71q0,11.23.41,13.52a3.15,3.15,0,0,0,1.1,2q.85.65,5.27.86v4.26q-7.14-.47-12-.47Q135.85,91.2,129,91.67Z"/><path class="cls-1" d="M193.09,18.94v4.58a24.65,24.65,0,0,0-4.42.39,2.18,2.18,0,0,0-1,.57,1.86,1.86,0,0,0-.4.86,16.83,16.83,0,0,0-.37,3.38c-.05.9-.09,2.6-.11,5.09q-.15,12.8-.15,13.78v21l.11,9.51a39.63,39.63,0,0,0,.37,7,2.29,2.29,0,0,0,.5,1.11,2.44,2.44,0,0,0,1.1.63,24.68,24.68,0,0,0,4.37.33v4.58q-6-.32-12.83-.31-5.92,0-10.58.31V87.09a39.15,39.15,0,0,0,4.43-.36,2,2,0,0,0,1-.57,1.87,1.87,0,0,0,.35-.83c.07-.42.17-2,.29-4.89q.3-6.24.3-11.54V47.17q0-10.35-.07-13.31-.19-6.6-.45-8.26a2.63,2.63,0,0,0-.35-1,1.75,1.75,0,0,0-.88-.6,27.74,27.74,0,0,0-4.67-.44V18.94q4.65.31,10.66.31C184.83,19.25,189.09,19.15,193.09,18.94Z"/><path class="cls-2" d="M91.75,91.62A19.27,19.27,0,0,1,84,91c-1.87-2.74-3.7-7.36-5-15C78.92,75.93,91.72,78,91.75,91.62Z"/><path class="cls-2" d="M102.11,85.07a12.76,12.76,0,0,1-4.38,4.54,15.77,15.77,0,0,1-1.79.9c-6.23-12,4.2-21.72,4.2-21.72C102.28,76.43,102.61,81.59,102.11,85.07Z"/><path class="cls-2" d="M87.41,75.35s-9,5.23-12.82-18C74.59,57.36,88,56.78,87.41,75.35Z"/><path class="cls-2" d="M83.1,56.39s-3.65,2-7.33-2.74a22.31,22.31,0,0,1-3.19-6.26,56.68,56.68,0,0,1-2.13-8.26L67.64,24.89,71.56,38.3a14.19,14.19,0,0,1,8.87,6,15.62,15.62,0,0,1,1.91,4.17A23,23,0,0,1,83.1,56.39Z"/><path class="cls-2" d="M92.56,73.38s10-.85,3.45-23.21C96,50.17,84.2,57.67,92.56,73.38Z"/><path class="cls-2" d="M93.73,43.54A20.28,20.28,0,0,1,93.37,48c-1.23,6-5.13,6.47-5.13,6.47a21.8,21.8,0,0,1-2.57-6.75,17.45,17.45,0,0,1-.3-4.12,18.11,18.11,0,0,1,5.19-11.66L88.39,16.16l3.48,15.77A47.81,47.81,0,0,1,93.73,43.54Z"/><path class="cls-2" d="M82.36,38.36s-9.61-.24-6-22.12L74.15,1.91l4,13.84S89,27.82,82.36,38.36Z"/><path class="cls-1" d="M112,42.8A42.86,42.86,0,0,0,109.53,34a30.57,30.57,0,0,0-4.74-7.83,21.93,21.93,0,0,0-7.17-5.84,25.26,25.26,0,0,0-5.36-1.89L94.37,28a21.65,21.65,0,0,1,2.73,4.29,39.06,39.06,0,0,1,3.23,10.27,72.7,72.7,0,0,1,1.12,13.3c0,1.47,0,2.88-.09,4.25a21.65,21.65,0,0,1-1.18,10.34c-.23,1.2-.5,2.36-.81,3.45q-2.09,7.44-5.75,10.56a12.5,12.5,0,0,1-8.31,3.11,12.69,12.69,0,0,1-8.7-3.27q-3.69-3.27-6-11.2t-2.35-20a72.89,72.89,0,0,1,.37-7.53c-.5-1.79-1-3.74-1.36-5.87L64.81,27.48l-.07.09a35.87,35.87,0,0,0-5.84,12,59.69,59.69,0,0,0-2,16.58q0,12.33,3.39,20.59t9.35,12.5a23.89,23.89,0,0,0,14.24,4.24A26.56,26.56,0,0,0,97.47,90a25.85,25.85,0,0,0,7.76-7.44,36.17,36.17,0,0,0,5.18-11.07,65.6,65.6,0,0,0,2.4-18.14A62.33,62.33,0,0,0,112,42.8Z"/><text class="cls-3" transform="translate(202.5 90.51) scale(1.02 1)">HOUSE</text></svg>